<svg fill="#000000" xmlns="http://www.w3.org/2000/svg"  viewBox="0 0 50 50" width="50px" height="50px"><path d="M 25 1 C 23.344896 1 21.681238 1.6359421 20.421875 2.8964844 L 2.8964844 20.421875 C 1.6363208 21.682039 1.0019531 23.343761 1.0019531 24.998047 C 1.0019531 26.652333 1.6357213 28.316588 2.8964844 29.576172 L 20.423828 47.103516 C 21.683992 48.363679 23.345714 48.998047 25 48.998047 C 26.653762 48.998047 28.316731 48.363483 29.576172 47.103516 L 41.306641 35.375 L 47.103516 29.578125 C 48.352482 28.329159 48.988109 26.683134 48.998047 25.041016 L 48.998047 25.039062 C 49.009367 23.369573 48.372241 21.691779 47.103516 20.421875 L 29.578125 2.8964844 C 28.317161 1.6366988 26.655104 1 25 1 z M 25 3 C 26.146896 3 27.28698 3.4323324 28.166016 4.3105469 L 33.257812 9.4042969 L 25.003906 17.662109 L 16.744141 9.4042969 L 21.837891 4.3105469 C 22.714528 3.4330892 23.853104 3 25 3 z M 15.330078 10.818359 L 23.589844 19.076172 L 9.4101562 33.261719 L 4.3105469 28.162109 C 3.43331 27.285693 3.0019531 26.143761 3.0019531 24.998047 C 3.0019531 23.852333 3.4327104 22.713774 4.3105469 21.835938 L 15.330078 10.818359 z M 34.671875 10.818359 L 42.824219 18.970703 L 34.517578 27.173828 L 26.417969 19.076172 L 34.671875 10.818359 z M 44.238281 20.384766 L 45.689453 21.835938 C 46.573429 22.721385 47.008177 23.871992 47 25.027344 L 46.998047 25.027344 C 46.991547 26.16459 46.560002 27.293514 45.689453 28.164062 L 40.599609 33.253906 L 35.931641 28.585938 L 44.238281 20.384766 z M 25.003906 20.490234 L 39.185547 34.667969 L 28.162109 45.689453 C 27.285693 46.56669 26.145714 46.998047 25 46.998047 C 23.854286 46.998047 22.715727 46.56729 21.837891 45.689453 L 10.824219 34.675781 L 25.003906 20.490234 z"/></svg>