<svg xmlns="http://www.w3.org/2000/svg"  viewBox="0 0 64 64" width="64px" height="64px"><linearGradient id="n7GbNptP9nIelJdj~JXU3a" x1="32" x2="32" y1="7.766" y2="56.935" gradientUnits="userSpaceOnUse"><stop offset="0" stop-color="#1a6dff"/><stop offset="1" stop-color="#c822ff"/></linearGradient><path fill="url(#n7GbNptP9nIelJdj~JXU3a)" d="M51,8H13c-2.757,0-5,2.243-5,5v38c0,2.757,2.243,5,5,5h38c2.757,0,5-2.243,5-5V13	C56,10.243,53.757,8,51,8z M54,51c0,1.654-1.346,3-3,3H13c-1.654,0-3-1.346-3-3V13c0-1.654,1.346-3,3-3h38c1.654,0,3,1.346,3,3V51z"/><linearGradient id="n7GbNptP9nIelJdj~JXU3b" x1="24.994" x2="24.994" y1="19.17" y2="43.852" gradientUnits="userSpaceOnUse"><stop offset="0" stop-color="#6dc7ff"/><stop offset="1" stop-color="#e6abff"/></linearGradient><path fill="url(#n7GbNptP9nIelJdj~JXU3b)" d="M31.135,31.827c-0.037-0.436-0.212-0.863-0.51-1.186l-8.182-10.855 c-0.665-0.882-1.919-1.058-2.801-0.393c-0.882,0.665-1.058,1.919-0.393,2.801L26.641,32l-7.392,9.807 c-0.665,0.882-0.489,2.136,0.393,2.801c0.882,0.665,2.136,0.489,2.801-0.393c0,0,8.182-10.854,8.182-10.855 c0.296-0.393,0.501-0.793,0.516-1.302C31.144,31.981,31.142,31.904,31.135,31.827z"/><linearGradient id="n7GbNptP9nIelJdj~JXU3c" x1="39.035" x2="39.035" y1="19.17" y2="43.852" gradientUnits="userSpaceOnUse"><stop offset="0" stop-color="#6dc7ff"/><stop offset="1" stop-color="#e6abff"/></linearGradient><path fill="url(#n7GbNptP9nIelJdj~JXU3c)" d="M44.81,41.885L37.359,32l7.392-9.807c0.665-0.882,0.489-2.136-0.393-2.801 c-0.882-0.665-2.136-0.489-2.801,0.393c0,0-8.182,10.854-8.182,10.855c-0.299,0.396-0.504,0.8-0.516,1.313 c-0.012,0.51,0.169,1.028,0.516,1.406l8.241,10.933c0.665,0.882,1.919,1.058,2.801,0.393C45.299,44.021,45.475,42.767,44.81,41.885 z"/></svg>